<mxfile host="65bd71144e">
    <diagram id="Q5M9hH2Z5QS-SJc0qKga" name="Page-1">
        <mxGraphModel dx="1233" dy="796" grid="1" gridSize="10" guides="1" tooltips="1" connect="1" arrows="1" fold="1" page="1" pageScale="1" pageWidth="850" pageHeight="1100" math="0" shadow="0">
            <root>
                <mxCell id="0"/>
                <mxCell id="1" parent="0"/>
                <mxCell id="11" value="GET /api&lt;br&gt;&lt;div style=&quot;&quot;&gt;GET /api/visit&lt;/div&gt;" style="edgeStyle=none;html=1;align=left;" parent="1" source="3" target="7" edge="1">
                    <mxGeometry x="-0.5652" relative="1" as="geometry">
                        <mxPoint as="offset"/>
                    </mxGeometry>
                </mxCell>
                <mxCell id="3" value="User" style="shape=umlActor;verticalLabelPosition=bottom;verticalAlign=top;html=1;outlineConnect=0;fillColor=none;strokeWidth=3;strokeColor=#CCCCCC;" parent="1" vertex="1">
                    <mxGeometry x="100" y="750" width="30" height="60" as="geometry"/>
                </mxCell>
                <mxCell id="4" value="" style="endArrow=none;dashed=1;html=1;strokeWidth=3;strokeColor=#CCCCCC;" parent="1" edge="1">
                    <mxGeometry width="50" height="50" relative="1" as="geometry">
                        <mxPoint x="280" y="920" as="sourcePoint"/>
                        <mxPoint x="280" y="640" as="targetPoint"/>
                    </mxGeometry>
                </mxCell>
                <mxCell id="5" value="HTTP" style="edgeLabel;html=1;align=center;verticalAlign=middle;resizable=0;points=[];" parent="4" vertex="1" connectable="0">
                    <mxGeometry x="-0.0283" relative="1" as="geometry">
                        <mxPoint y="-84" as="offset"/>
                    </mxGeometry>
                </mxCell>
                <mxCell id="12" style="edgeStyle=none;html=1;" parent="1" source="7" target="10" edge="1">
                    <mxGeometry relative="1" as="geometry"/>
                </mxCell>
                <mxCell id="14" value="http://express-visit-counter-api:5000" style="edgeLabel;html=1;align=center;verticalAlign=middle;resizable=0;points=[];" vertex="1" connectable="0" parent="12">
                    <mxGeometry x="0.0196" relative="1" as="geometry">
                        <mxPoint as="offset"/>
                    </mxGeometry>
                </mxCell>
                <mxCell id="7" value="Nginx&lt;br&gt;LB &amp;amp; Proxy" style="rounded=0;whiteSpace=wrap;html=1;fillColor=#1ba1e2;fontColor=#ffffff;strokeColor=#006EAF;" parent="1" vertex="1">
                    <mxGeometry x="310" y="750" width="120" height="60" as="geometry"/>
                </mxCell>
                <mxCell id="8" value="Visit Counter API&lt;br&gt;Node.js" style="rounded=0;whiteSpace=wrap;html=1;fillColor=#1ba1e2;fontColor=#ffffff;strokeColor=#006EAF;" parent="1" vertex="1">
                    <mxGeometry x="670" y="760" width="120" height="60" as="geometry"/>
                </mxCell>
                <mxCell id="9" value="Redis" style="shape=cylinder3;whiteSpace=wrap;html=1;boundedLbl=1;backgroundOutline=1;size=15;fillColor=#6a00ff;fontColor=#ffffff;strokeColor=#3700CC;" parent="1" vertex="1">
                    <mxGeometry x="1020" y="740" width="120" height="80" as="geometry"/>
                </mxCell>
                <mxCell id="13" value="redis://redis-cache-middleware:6379" style="edgeStyle=none;html=1;" parent="1" source="10" target="9" edge="1">
                    <mxGeometry relative="1" as="geometry"/>
                </mxCell>
                <mxCell id="10" value="Visit Counter API&lt;br&gt;Node.js" style="rounded=0;whiteSpace=wrap;html=1;fillColor=#1ba1e2;fontColor=#ffffff;strokeColor=#006EAF;" parent="1" vertex="1">
                    <mxGeometry x="660" y="750" width="120" height="60" as="geometry"/>
                </mxCell>
            </root>
        </mxGraphModel>
    </diagram>
</mxfile>